<?xml version="1.0" encoding="UTF-8"?>
<svg xmlns="http://www.w3.org/2000/svg" xmlns:xlink="http://www.w3.org/1999/xlink" width="125px" height="125px" viewBox="0 0 125 125" version="1.1">
<g id="surface1">
<path style=" stroke:none;fill-rule:evenodd;fill:rgb(100%,75.686276%,2.352941%);fill-opacity:1;" d="M 80.605469 36.445312 C 94.0625 40.039062 102.050781 53.867188 98.4375 67.324219 C 97.167969 72.070312 94.628906 76.132812 91.289062 79.257812 C 88.339844 73.808594 82.597656 70.117188 75.976562 70.117188 C 74.902344 70.117188 73.847656 70.195312 72.832031 70.390625 C 69.277344 61.015625 60.351562 54.277344 49.804688 53.945312 C 53.554688 40.683594 67.265625 32.871094 80.605469 36.445312 Z M 80.605469 36.445312 "/>
<path style=" stroke:none;fill-rule:evenodd;fill:rgb(10.196079%,70.980394%,92.941177%);fill-opacity:1;" d="M 24.003906 104.902344 L 23.808594 104.902344 C 16.289062 104.902344 10.195312 98.828125 10.195312 91.308594 C 10.195312 83.867188 16.152344 77.832031 23.574219 77.695312 C 24.453125 64.414062 35.488281 53.925781 49.003906 53.925781 C 59.902344 53.925781 69.199219 60.761719 72.832031 70.390625 C 73.847656 70.195312 74.902344 70.117188 75.976562 70.117188 C 84.804688 70.117188 92.128906 76.71875 93.222656 85.253906 C 98.652344 85.253906 103.046875 89.667969 103.046875 95.078125 C 103.046875 100.429688 98.769531 104.785156 93.457031 104.902344 Z M 24.003906 104.902344 "/>
<path style=" stroke:none;fill-rule:nonzero;fill:rgb(100%,75.686276%,2.352941%);fill-opacity:1;" d="M 108.4375 77.832031 C 109.609375 78.496094 110 80 109.335938 81.152344 C 108.671875 82.324219 107.1875 82.714844 106.015625 82.050781 L 102.636719 80.097656 C 101.484375 79.433594 101.074219 77.949219 101.738281 76.777344 C 102.421875 75.625 103.90625 75.214844 105.058594 75.878906 Z M 39.726562 43.769531 C 38.554688 43.105469 38.164062 41.621094 38.828125 40.449219 C 39.492188 39.296875 40.976562 38.886719 42.148438 39.550781 L 45.527344 41.503906 C 46.679688 42.167969 47.089844 43.652344 46.40625 44.824219 C 45.742188 45.996094 44.257812 46.386719 43.105469 45.722656 Z M 52.832031 28.867188 C 52.167969 27.695312 52.578125 26.210938 53.730469 25.546875 C 54.902344 24.882812 56.386719 25.273438 57.050781 26.445312 L 59.003906 29.824219 C 59.667969 30.976562 59.257812 32.480469 58.105469 33.144531 C 56.933594 33.808594 55.449219 33.398438 54.785156 32.246094 Z M 71.640625 22.519531 C 71.640625 21.171875 72.734375 20.078125 74.082031 20.078125 C 75.429688 20.078125 76.523438 21.171875 76.523438 22.519531 L 76.523438 26.425781 C 76.523438 27.773438 75.429688 28.867188 74.082031 28.867188 C 72.734375 28.867188 71.640625 27.773438 71.640625 26.425781 Z M 91.113281 26.425781 C 91.796875 25.273438 93.28125 24.882812 94.433594 25.546875 C 95.605469 26.230469 95.996094 27.714844 95.332031 28.867188 L 93.378906 32.246094 C 92.695312 33.417969 91.210938 33.808594 90.039062 33.144531 C 88.886719 32.460938 88.496094 30.976562 89.160156 29.804688 Z M 106.015625 39.550781 C 107.1875 38.886719 108.671875 39.296875 109.335938 40.449219 C 110 41.621094 109.609375 43.105469 108.4375 43.769531 L 105.058594 45.722656 C 103.90625 46.386719 102.421875 45.996094 101.738281 44.824219 C 101.074219 43.652344 101.484375 42.167969 102.636719 41.503906 Z M 112.363281 58.359375 C 113.710938 58.359375 114.804688 59.453125 114.804688 60.800781 C 114.804688 62.148438 113.710938 63.242188 112.363281 63.242188 L 108.457031 63.242188 C 107.109375 63.242188 106.015625 62.148438 106.015625 60.800781 C 106.015625 59.453125 107.109375 58.359375 108.457031 58.359375 Z M 112.363281 58.359375 "/>
</g>
</svg>
